<svg xmlns="http://www.w3.org/2000/svg" xmlns:xlink="http://www.w3.org/1999/xlink" version="1.1" x="0px" y="0px" viewBox="0 0 64 80" style="enable-background:new 0 0 64 64;" xml:space="preserve"><g><path d="M38.4,36.8C37.836,37.552,36.939,38,36,38c-1.654,0-3-1.346-3-3v-1h-1c-2.757,0-5-2.243-5-5V17c0-2.757,2.243-5,5-5h21V4   c0-0.551-0.449-1-1-1H4C3.449,3,3,3.449,3,4v45h9c1.654,0,3,1.346,3,3v9h37c0.551,0,1-0.449,1-1V34H40.5L38.4,36.8z M6,6h18v10H6V6   z M5,19h20v2H5V19z M25,23v2h-4v-2H25z M5,23h14v2H5V23z M5,27h20v2H5V27z M25,31v2H9v-2H25z M5,31h2v2H5V31z M5,35h20v2H5V35z    M5,41v-2h20v2H5z M29,59H17v-2h12V59z M29,55H17v-2h12V55z M29,51H17v-2h12V51z M51,49c0,5.514-4.486,10-10,10s-10-4.486-10-10   s4.486-10,10-10S51,43.486,51,49z"/><path d="M34.637,53.829c1.271,1.671,3.179,2.828,5.363,3.102v-4.073c-0.711-0.185-1.349-0.549-1.849-1.058L34.637,53.829z"/><path d="M37,49c0-0.37,0.067-0.721,0.161-1.061l-3.535-2.041C33.223,46.852,33,47.901,33,49s0.223,2.148,0.626,3.102l3.535-2.041   C37.067,49.721,37,49.37,37,49z"/><circle cx="41" cy="49" r="2"/><path d="M42,52.858v4.073c2.184-0.274,4.092-1.431,5.363-3.102L43.849,51.8C43.349,52.309,42.711,52.673,42,52.858z"/><path d="M40,45.142v-4.073c-2.184,0.274-4.092,1.431-5.363,3.102l3.514,2.029C38.651,45.691,39.289,45.327,40,45.142z"/><path d="M45,49c0,0.37-0.067,0.721-0.161,1.061l3.535,2.041C48.777,51.148,49,50.099,49,49s-0.223-2.148-0.626-3.102l-3.535,2.041   C44.933,48.279,45,48.63,45,49z"/><path d="M58,14H32c-1.654,0-3,1.346-3,3v12c0,1.654,1.346,3,3,3h3v3c0,0.551,0.449,1,1,1c0.313,0,0.612-0.149,0.8-0.4l2.7-3.6H58   c1.654,0,3-1.346,3-3V17C61,15.346,59.654,14,58,14z M36,30h-2v-2h2V30z M37.878,22.536L36,24.414V26h-2v-2.414l2.464-2.464   C36.81,20.776,37,20.317,37,19.829C37,18.82,36.18,18,35.171,18h-0.343C33.82,18,33,18.82,33,19.829V21h-2v-1.171   C31,17.717,32.717,16,34.829,16h0.343C37.283,16,39,17.717,39,19.829C39,20.851,38.602,21.813,37.878,22.536z M46,30h-2v-2h2V30z    M47.878,22.536L46,24.414V26h-2v-2.414l2.464-2.464C46.81,20.776,47,20.317,47,19.829C47,18.82,46.18,18,45.171,18h-0.343   C43.82,18,43,18.82,43,19.829V21h-2v-1.171C41,17.717,42.717,16,44.829,16h0.343C47.283,16,49,17.717,49,19.829   C49,20.851,48.602,21.813,47.878,22.536z M56,30h-2v-2h2V30z M57.878,22.536L56,24.414V26h-2v-2.414l2.464-2.464   C56.81,20.776,57,20.317,57,19.829C57,18.82,56.18,18,55.171,18h-0.343C53.82,18,53,18.82,53,19.829V21h-2v-1.171   C51,17.717,52.717,16,54.829,16h0.343C57.283,16,59,17.717,59,19.829C59,20.851,58.602,21.813,57.878,22.536z"/><path d="M47.363,44.171C46.092,42.5,44.184,41.344,42,41.069v4.073c0.711,0.185,1.349,0.549,1.849,1.058L47.363,44.171z"/><path d="M12,51H4.414L13,59.586V52C13,51.449,12.551,51,12,51z"/></g><text x="0" y="79" fill="#000000" font-size="5px" font-weight="bold" font-family="'Helvetica Neue', Helvetica, Arial-Unicode, Arial, Sans-serif">Created by Eucalyp</text><text x="0" y="84" fill="#000000" font-size="5px" font-weight="bold" font-family="'Helvetica Neue', Helvetica, Arial-Unicode, Arial, Sans-serif">from the Noun Project</text></svg>